<?xml version="1.0" encoding="utf-8"?>
<!-- Generator: Adobe Illustrator 28.0.0, SVG Export Plug-In . SVG Version: 6.00 Build 0)  -->
<svg version="1.1" id="Capa_1" xmlns="http://www.w3.org/2000/svg" xmlns:xlink="http://www.w3.org/1999/xlink" x="0px" y="0px"
	 viewBox="0 0 512 512" style="enable-background:new 0 0 512 512;" xml:space="preserve">
<style type="text/css">
	.st0{fill:url(#SVGID_1_);stroke:url(#SVGID_00000071560027472038286150000002695848531494545333_);stroke-width:8;}
	.st1{fill:url(#SVGID_00000032639131292330749450000009333893204240793784_);}
	.st2{fill:url(#SVGID_00000062171300731523108080000001989004488381748371_);}
	.st3{fill:url(#SVGID_00000056387355611174454150000003290397732004056197_);}
	.st4{fill:url(#SVGID_00000085940350601552252870000011081958601216560302_);}
	.st5{fill:url(#SVGID_00000137100631439517348000000001089466655682064568_);}
	.st6{fill:url(#SVGID_00000119816521819310068930000009648102919749080214_);}
	.st7{fill:#FFDD00;}
	.st8{fill:#E20613;}
	.st9{fill:#002F87;}
	.st10{fill:#FFFFFF;}
	.st11{fill-rule:evenodd;clip-rule:evenodd;fill:#FFFFFF;}
	.st12{fill:url(#SVGID_00000040552954841153805450000015845548790457620899_);}
	.st13{fill:url(#SVGID_00000126313413395128426200000007737497139312459451_);}
	.st14{fill:url(#SVGID_00000158720297498624019080000007750304568105919106_);}
	.st15{fill:url(#SVGID_00000079444509577908166960000012257251390261959314_);}
	.st16{fill:url(#SVGID_00000096017374958938914030000003046378015697652106_);}
	.st17{fill:url(#SVGID_00000016075846768933873010000008380052864462443146_);}
	.st18{fill:url(#SVGID_00000173136505481611351630000012988936211698603967_);}
	.st19{fill:url(#SVGID_00000140728407098039274710000008952218770318355625_);}
	.st20{fill:url(#SVGID_00000044141622740757022960000017629908218365535617_);}
	.st21{fill:url(#SVGID_00000142176247988898517030000011517021733536161949_);}
	.st22{fill:url(#SVGID_00000074424923629765256780000009416823755424497314_);}
	.st23{opacity:0.2;fill:#38BDF8;}
	.st24{fill:url(#SVGID_00000121985799217191937600000000174800227509064373_);}
	.st25{fill:url(#SVGID_00000074411318286169105120000017068269989875116724_);}
	.st26{fill:url(#SVGID_00000079473559307193342000000011237680818692443051_);}
	.st27{fill:url(#SVGID_00000061458802545978455040000005336271632056266384_);}
	.st28{fill:url(#SVGID_00000029044362410650050950000000252991992232713138_);}
	.st29{fill:url(#SVGID_00000168823410718353936980000017012061313379478151_);}
</style>
<radialGradient id="SVGID_1_" cx="-281.9473" cy="795.9473" r="0.5" gradientTransform="matrix(512 0 0 -512 144613 407781)" gradientUnits="userSpaceOnUse">
	<stop  offset="0" style="stop-color:#1E1B4B"/>
	<stop  offset="1" style="stop-color:#0F172A"/>
</radialGradient>
<linearGradient id="SVGID_00000065775654493584252660000009502439362588639117_" gradientUnits="userSpaceOnUse" x1="-282.4473" y1="796.4473" x2="-281.4473" y2="795.4473" gradientTransform="matrix(512 0 0 -512 144613 407781)">
	<stop  offset="0" style="stop-color:#38BDF8"/>
	<stop  offset="0.5" style="stop-color:#818CF8"/>
	<stop  offset="1" style="stop-color:#6366F1"/>
</linearGradient>
<path style="fill:url(#SVGID_1_);stroke:url(#SVGID_00000065775654493584252660000009502439362588639117_);stroke-width:8;" d="
	M112,0h288c61.9,0,112,50.1,112,112v288c0,61.9-50.1,112-112,112H112C50.1,512,0,461.9,0,400V112C0,50.1,50.1,0,112,0z"/>
<linearGradient id="SVGID_00000067220641522172328000000000445899006639434383_" gradientUnits="userSpaceOnUse" x1="312.991" y1="368.9601" x2="313.3006" y2="368.9601">
	<stop  offset="0" style="stop-color:#6D72F3"/>
	<stop  offset="0.4263" style="stop-color:#569CF6"/>
	<stop  offset="0.6108" style="stop-color:#4BAFF8"/>
	<stop  offset="0.7884" style="stop-color:#47B2F8"/>
	<stop  offset="0.9632" style="stop-color:#3BBBF8"/>
	<stop  offset="0.9973" style="stop-color:#38BDF8"/>
</linearGradient>
<polygon style="fill:url(#SVGID_00000067220641522172328000000000445899006639434383_);" points="313,369 313.3,368.9 313,369 "/>
<linearGradient id="SVGID_00000097482870714672162870000002780594271052513448_" gradientUnits="userSpaceOnUse" x1="312.9498" y1="369.1191" x2="313.0006" y2="369.1191">
	<stop  offset="0" style="stop-color:#6D72F3"/>
	<stop  offset="0.4263" style="stop-color:#569CF6"/>
	<stop  offset="0.6108" style="stop-color:#4BAFF8"/>
	<stop  offset="0.7884" style="stop-color:#47B2F8"/>
	<stop  offset="0.9632" style="stop-color:#3BBBF8"/>
	<stop  offset="0.9973" style="stop-color:#38BDF8"/>
</linearGradient>
<polygon style="fill:url(#SVGID_00000097482870714672162870000002780594271052513448_);" points="313,369 312.9,369.3 313,369 "/>
<g>
	
		<radialGradient id="SVGID_00000072960483569653340260000000703707377072136343_" cx="2688.0896" cy="1863.3621" r="22.624" gradientTransform="matrix(-2.4844 -1.0712 -1.0712 2.4844 8718.6641 -1573.6481)" gradientUnits="userSpaceOnUse">
		<stop  offset="0" style="stop-color:#FFFFFF"/>
		<stop  offset="0.9994" style="stop-color:#000000;stop-opacity:0"/>
	</radialGradient>
	<circle style="fill:url(#SVGID_00000072960483569653340260000000703707377072136343_);" cx="44.2" cy="176.2" r="61.2"/>
	
		<radialGradient id="SVGID_00000041296218402339706450000004554423426163176583_" cx="2683.875" cy="1826.1722" r="14.407" gradientTransform="matrix(-2.4844 -1.0712 -1.0712 2.4844 8718.6641 -1573.6481)" gradientUnits="userSpaceOnUse">
		<stop  offset="0" style="stop-color:#FFFFFF"/>
		<stop  offset="0.9994" style="stop-color:#000000;stop-opacity:0"/>
	</radialGradient>
	<circle style="fill:url(#SVGID_00000041296218402339706450000004554423426163176583_);" cx="94.5" cy="88.4" r="39"/>
	
		<radialGradient id="SVGID_00000132052072183977662620000010033514489460726912_" cx="2700.0237" cy="1835.6885" r="14.407" gradientTransform="matrix(-2.4844 -1.0712 -1.0712 2.4844 8718.6641 -1573.6481)" gradientUnits="userSpaceOnUse">
		<stop  offset="0" style="stop-color:#FFFFFF"/>
		<stop  offset="0.9994" style="stop-color:#000000;stop-opacity:0"/>
	</radialGradient>
	<circle style="fill:url(#SVGID_00000132052072183977662620000010033514489460726912_);" cx="44.2" cy="94.7" r="39"/>
	
		<radialGradient id="SVGID_00000163061265110716193550000005852796993278572417_" cx="2662.5532" cy="1799.4803" r="9.0857" gradientTransform="matrix(-2.4844 -1.0712 -1.0712 2.4844 8718.6641 -1573.6481)" gradientUnits="userSpaceOnUse">
		<stop  offset="0" style="stop-color:#FFFFFF"/>
		<stop  offset="0.9994" style="stop-color:#000000;stop-opacity:0"/>
	</radialGradient>
	<circle style="fill:url(#SVGID_00000163061265110716193550000005852796993278572417_);" cx="176" cy="44.9" r="24.6"/>
</g>
<g>
	<g>
		<g>
			<rect x="213.2" y="389.3" class="st7" width="224.2" height="17.5"/>
			<rect x="213.2" y="433" class="st8" width="224.2" height="17.5"/>
			<rect x="213.2" y="411.2" class="st9" width="224.2" height="17.5"/>
			<g>
				<path class="st10" d="M220.2,448.1v-56.2h14.2l0,56.2C234.4,448.1,221.5,447.9,220.2,448.1"/>
				<path class="st11" d="M237.8,448.1l23-57.3h6.2l22.9,57.3h-14.2l-5.4-16.6H251l-5.8,16.6H237.8z M253.3,426.1H268l-7.2-18.9
					C260.9,407.2,254.5,422.7,253.3,426.1"/>
				<path class="st10" d="M300.4,448.1v-49h-14.9v-7.2h43.7v7.2h-15v49C314.2,448.1,301.6,447.9,300.4,448.1"/>
				<path class="st10" d="M74.6,445.1c0.5-1.7,1-3.4,1.4-5.3c0.5-1.8,0.9-3.8,1.3-5.8h1c0.7,3.1,2.1,5.5,4.1,7.2
					c2.1,1.7,4.6,2.6,7.6,2.6c2.7,0,4.9-0.7,6.5-2.2c1.7-1.4,2.5-3.4,2.5-5.8c0-1.8-0.6-3.3-1.6-4.6c-1-1.3-3.5-3-7.6-5.2
					c-6.2-3.3-10.2-6.2-12.1-8.6c-1.8-2.4-2.8-5.4-2.8-9c0-4.9,1.7-8.8,5.1-11.9c3.4-3,8-4.5,13.7-4.5c2.5,0,4.7,0.3,6.9,0.9
					c2.1,0.6,4.1,1.6,5.9,2.9c-0.6,1.5-1,3-1.5,4.6c-0.4,1.4-0.8,2.9-1.1,4.2h-0.9c-0.8-2.4-2.2-4.2-4.1-5.6
					c-1.9-1.4-4.2-2.1-6.6-2.1c-2.4,0-4.2,0.6-5.7,1.9c-1.4,1.3-2.2,3-2.2,5.1c0,1.8,0.6,3.3,1.6,4.6c1,1.2,3.4,2.8,7.1,4.7
					c0.8,0.4,2,1,3.5,1.8c4.3,2.1,7,3.8,8.2,5c1.4,1.4,2.5,3.1,3.2,4.9c0.7,1.8,1,3.8,1,5.9c0,5.4-1.8,9.8-5.4,13.1
					c-3.7,3.3-8.6,5-14.6,5c-3.2,0-6-0.3-8.3-1C78.2,447.3,76.3,446.4,74.6,445.1 M118,447.8v-54.7h30.7v6.8h-17.8v15.7h17.5v6.8
					h-17.5v18.4h17.8v7H118z M157.5,447.8v-54.7h8.6l33.4,36.8v-36.8h6.4v54.7h-7l-34.9-38.5v38.5H157.5z"/>
				<polygon class="st10" points="344.9,425.3 342.2,425.4 341.4,428 340.5,425.4 337.8,425.4 340,423.8 339.1,421.2 341.3,422.8 
					343.5,421.2 342.7,423.8 				"/>
				<polygon class="st10" points="352.7,421.8 350.1,421.1 348.6,423.4 348.4,420.7 345.8,420 348.4,419 348.2,416.3 349.9,418.4 
					352.5,417.4 351,419.7 				"/>
				<polygon class="st10" points="361,419.8 358.6,418.7 356.7,420.7 357,418 354.6,416.8 357.2,416.3 357.6,413.6 358.9,416 
					361.6,415.5 359.7,417.5 				"/>
				<polygon class="st10" points="369.5,419 367.2,417.6 365.1,419.3 365.8,416.7 363.5,415.2 366.2,415 366.9,412.4 367.9,414.9 
					370.6,414.7 368.5,416.5 				"/>
				<polygon class="st10" points="378.1,419.2 376,417.5 373.7,419 374.6,416.5 372.5,414.8 375.3,414.9 376.2,412.4 376.9,415 
					379.7,415.1 377.4,416.6 				"/>
				<polygon class="st10" points="386.5,420.5 384.7,418.6 382.2,419.7 383.5,417.3 381.7,415.3 384.3,415.8 385.7,413.5 386,416.2 
					388.6,416.7 386.2,417.9 				"/>
				<polygon class="st10" points="394.7,423.1 393.2,420.8 390.5,421.6 392.2,419.4 390.7,417.2 393.2,418.1 394.9,416 394.8,418.7 
					397.4,419.6 394.8,420.4 				"/>
				<polygon class="st10" points="402,427.4 401.1,424.8 398.4,424.9 400.6,423.2 399.7,420.7 401.9,422.2 404.1,420.6 403.3,423.2 
					405.5,424.7 402.8,424.8 				"/>
			</g>
		</g>
	</g>
	<g>
		<g>
			
				<radialGradient id="SVGID_00000019673121190253619660000013286561093470842254_" cx="202.3631" cy="-28.3591" r="345.7053" gradientTransform="matrix(0.9814 0.1921 -0.1921 0.9814 45.4897 -45.2658)" gradientUnits="userSpaceOnUse">
				<stop  offset="0" style="stop-color:#6366F1"/>
				<stop  offset="0.5" style="stop-color:#818CF8"/>
				<stop  offset="1" style="stop-color:#38BDF8"/>
			</radialGradient>
			<path style="fill:url(#SVGID_00000019673121190253619660000013286561093470842254_);" d="M213.7,220.3c3.2,1.2,4.5,2.8,5.8,4.2
				c18.8,20,37.5,40.2,56.4,60.1c3.7,3.9,4.4,7.4,3,12.5c-3.7,13.7-7,27.6-10,41.5c-1,4.7-3.3,7.2-7.9,8.5
				c-26.2,7.2-52.4,14.5-78.6,21.9c-5,1.4-8.3,0.2-11.4-3.9c-12.2-15.7-24.5-31.3-37-46.8c-3.7-4.5-4.3-8.7-2.7-14.2
				c6.4-21.6,12.4-43.4,18.5-65.1c1.1-4.1,2.8-7.1,7.4-8C176.2,227.6,195.2,223.9,213.7,220.3z M171.6,252.4
				c-2.6,2.9-14.7,46.6-15.2,56c9.2,11.6,18.7,23.6,28.3,35.7c20.8-6.6,41.9-10.9,62.1-18.1c1-5.4,4.3-9.6,4.8-14.8
				c0.5-5.1,2.4-10,2.4-15c-15.9-17-31.5-33.9-46.8-50.3C195.1,248.1,183.9,250.1,171.6,252.4z"/>
			
				<radialGradient id="SVGID_00000096041353695210787520000009346128204373900935_" cx="202.3631" cy="-28.3591" r="345.7053" gradientTransform="matrix(0.9814 0.1921 -0.1921 0.9814 45.4897 -45.2658)" gradientUnits="userSpaceOnUse">
				<stop  offset="0" style="stop-color:#6366F1"/>
				<stop  offset="0.5" style="stop-color:#818CF8"/>
				<stop  offset="1" style="stop-color:#38BDF8"/>
			</radialGradient>
			<path style="fill:url(#SVGID_00000096041353695210787520000009346128204373900935_);" d="M229.6,192.3c2.9-11.7,5.9-23.3,8.6-35
				c1.1-4.6,3.3-7.1,8.2-8c25.2-4.9,50.4-10.1,75.6-15.2c4.3-0.9,7.5,0.1,10.3,3.7c12.7,15.9,25.6,31.7,38.6,47.3
				c2.8,3.4,3.4,6.7,2.2,10.8c-6.4,22.6-12.8,45.3-19,68c-1,3.8-3.1,5.8-7,6.5c-17.1,3-34.2,6.1-51.4,9.2c-4.4,0.8-7.3-1.2-10.2-4.3
				c-15.7-16.9-31.5-33.7-47.2-50.5c-3.2-3.4-6.2-7-9.6-10.2c-2.9-2.7-3.3-5.7-2.3-9.3c1.1-4.3,1.8-8.6,2.6-13
				C229.3,192.3,229.5,192.3,229.6,192.3z M347.6,194.5c-9.3-11.7-18.4-24.3-29.4-35.3c-19.7,3.9-39,7.6-58,11.3
				c-4,10.9-7,21.4-8.3,32.2c4.3,7.4,44.5,50,49.7,52.7c10.5-4.3,22.3-3.3,32.9-7.9c1-4.7,3.1-9.1,3.9-13.4
				C340.9,221,346.7,208.6,347.6,194.5z"/>
			
				<radialGradient id="SVGID_00000087385007997813833490000001987654021392091784_" cx="202.3631" cy="-28.3591" r="345.7053" gradientTransform="matrix(0.9814 0.1921 -0.1921 0.9814 45.4897 -45.2658)" gradientUnits="userSpaceOnUse">
				<stop  offset="0" style="stop-color:#6366F1"/>
				<stop  offset="0.5" style="stop-color:#818CF8"/>
				<stop  offset="1" style="stop-color:#38BDF8"/>
			</radialGradient>
			<path style="fill:url(#SVGID_00000087385007997813833490000001987654021392091784_);" d="M196.2,71
				c46.8-14.7,91.9-12.1,136.6,6.5c-0.1,1.3,0,2.2-0.2,3.1c-2.1,11.1-4.4,22.2-6.5,33.3c-0.7,3.9-2.6,6.1-6.5,6.9
				c-26.9,5.3-53.8,10.7-80.8,16.2c-2.8,0.6-5.2,0-7.7-1.3c-11.7-5.7-23.4-11.2-35.1-16.9c-6.2-3-6.8-4.3-5.7-10.9
				C192.2,95.8,194.2,83.7,196.2,71z M304.2,92.7c-28.1-7.2-56.6-11.3-85.9-2.9c-0.1,3.8-4.2,6.1-3.1,10.4c2.6,4.1,7.6,4.5,11.4,7
				c7.9,5.3,15.8,6,25.3,3.5c17.2-4.5,34.8-7.4,52.2-10.9C305.7,97.6,306.3,95.4,304.2,92.7z"/>
			
				<radialGradient id="SVGID_00000174576679262436124240000014772887239570194110_" cx="202.3631" cy="-28.3591" r="345.7053" gradientTransform="matrix(0.9814 0.1921 -0.1921 0.9814 45.4897 -45.2658)" gradientUnits="userSpaceOnUse">
				<stop  offset="0" style="stop-color:#6366F1"/>
				<stop  offset="0.5" style="stop-color:#818CF8"/>
				<stop  offset="1" style="stop-color:#38BDF8"/>
			</radialGradient>
			<path style="fill:url(#SVGID_00000174576679262436124240000014772887239570194110_);" d="M434.7,319.4
				c-14.1,3.1-27.9,6.2-41.8,9.1c-5.3,1.1-7.6-0.3-9.6-5.5c-5.4-14.2-10.8-28.4-16.1-42.6c-1.6-4.4-1.5-8.6,0-13.3
				c4.5-14.5,8.4-29.2,12.5-43.9c2.2-7.8,4.3-15.6,6.3-23.4c1-4.1,3.3-6.2,7.4-7.2c21.6-5.2,15.4-6.7,29.9,8.4
				c6.4,6.7,12.6,13.7,19,20.4c1.9,2,3.1,4.3,3.4,7.1c3.5,30.2,0.5,59.7-9.7,88.4C435.8,317.4,435.4,318.1,434.7,319.4z M418,296.9
				c3.1-14.7,6.1-28.8,5.5-43.3c-0.2-4.1-1-8.3-0.4-12.2c0.4-3.1-0.5-5.7-2-7.5c-4.6-5.7-9.9-10.9-15.3-16.8
				c-2.2,5.1-2.1,9.9-3.6,14.2c-4.6,13.1-8.2,26.5-10.8,40.1c-0.4,2.2-0.5,4.3,0.3,6.5c2.8,8.2,5.6,16.5,9.6,24.4
				C407.3,301.2,413.2,301.3,418,296.9z"/>
			
				<radialGradient id="SVGID_00000006678019661014851810000008653657020202269872_" cx="202.3631" cy="-28.3591" r="345.7053" gradientTransform="matrix(0.9814 0.1921 -0.1921 0.9814 45.4897 -45.2658)" gradientUnits="userSpaceOnUse">
				<stop  offset="0" style="stop-color:#6366F1"/>
				<stop  offset="0.5" style="stop-color:#818CF8"/>
				<stop  offset="1" style="stop-color:#38BDF8"/>
			</radialGradient>
			<path style="fill:url(#SVGID_00000006678019661014851810000008653657020202269872_);" d="M74.3,193.4c5.9-5.4,13-5.2,19.3-7.2
				c6.3-2,12.6-4.2,18.9-6c4.6-1.3,7.1,0,9.2,4.9c5.6,12.8,10.8,25.8,16.3,38.6c1.3,3,0.3,5.8-0.5,8.6
				c-5.5,19.6-11.1,39.2-16.6,58.8c-1.1,3.8-2.2,7.6-3.1,11.4c-0.8,3.2-2.6,5.3-5.8,5.9c-12,2.3-24,4.6-36.5,7
				C61.5,274.4,61.6,233.6,74.3,193.4z M92.3,288.7c5.1-1.2,6.7-3.5,7.2-7c0.5-3.6,0.7-7.6,2.3-10.7c3.4-6.3,3.8-13.4,6.4-20
				c2.8-7.4,2.5-15.8,6.6-23c-4.2-6.6-6.5-13.6-8.9-20.8c-4.6,1.5-9.1,2.5-12.2,5.7C86.8,238.1,87.6,263.1,92.3,288.7z"/>
			
				<radialGradient id="SVGID_00000096035363576719164090000008543416450939872167_" cx="202.3631" cy="-28.3591" r="345.7053" gradientTransform="matrix(0.9814 0.1921 -0.1921 0.9814 45.4897 -45.2658)" gradientUnits="userSpaceOnUse">
				<stop  offset="0" style="stop-color:#6366F1"/>
				<stop  offset="0.5" style="stop-color:#818CF8"/>
				<stop  offset="1" style="stop-color:#38BDF8"/>
			</radialGradient>
			<path style="fill:url(#SVGID_00000096035363576719164090000008543416450939872167_);" d="M181.6,76.2c-1.2,7.1-2.1,12.6-3,18
				c-0.3,1.9-1,3.9-1,5.8c0.4,12-5.9,19.7-15,26.8c-13.5,10.6-26.2,22.2-39.2,33.4c-1.9,1.6-3.6,3.3-6.1,4.1
				C105.7,168.1,94,171.8,81,176C101.6,129.1,135.9,98.2,181.6,76.2z"/>
			
				<radialGradient id="SVGID_00000000925455746942045530000000123623583354635139_" cx="202.3631" cy="-28.3591" r="345.7053" gradientTransform="matrix(0.9814 0.1921 -0.1921 0.9814 45.4897 -45.2658)" gradientUnits="userSpaceOnUse">
				<stop  offset="0" style="stop-color:#6366F1"/>
				<stop  offset="0.5" style="stop-color:#818CF8"/>
				<stop  offset="1" style="stop-color:#38BDF8"/>
			</radialGradient>
			<path style="fill:url(#SVGID_00000000925455746942045530000000123623583354635139_);" d="M189.2,130.8c-2.9,4.6-7,7.8-10.5,11.5
				c-4.8,5.2-9.7,10.4-14.6,15.5c-10,10.3-13.2,22.6-10.7,36.5c1,5.5,2.3,11,3.5,16.5c0.4,1.9,1.5,3.6,0.8,5.6
				c-5.9,1.5-7.5,0.9-9.8-4.2c-4.1-9.4-8.1-18.9-12-28.4c-4.7-11.4-6.6-11.2,5-20.9c12.2-10.3,24.3-20.6,36.3-31.1
				C181,128.6,184.6,127.7,189.2,130.8z"/>
			
				<radialGradient id="SVGID_00000157273147378707057240000009740271880525634476_" cx="202.3631" cy="-28.3591" r="345.7053" gradientTransform="matrix(0.9814 0.1921 -0.1921 0.9814 45.4897 -45.2658)" gradientUnits="userSpaceOnUse">
				<stop  offset="0" style="stop-color:#6366F1"/>
				<stop  offset="0.5" style="stop-color:#818CF8"/>
				<stop  offset="1" style="stop-color:#38BDF8"/>
			</radialGradient>
			<path style="fill:url(#SVGID_00000157273147378707057240000009740271880525634476_);" d="M377.7,116c-4.2-1.3-7.9-3.8-12.3-4.7
				c-7.4-1.7-12,0.4-16,6.8c-2.4,3.7-2.8,8.3-5.6,11.8c-4.5-3.5-5.6-7.7-4.4-13.1c2.4-10.7,4.3-21.4,6.5-32.8
				c15.7,8.7,29.8,18.2,41.8,30.6c-0.4,2-1.3,3-3.5,2.5C382,116.6,379.8,116.3,377.7,116z"/>
			
				<radialGradient id="SVGID_00000015356032633648724890000013589915263225997242_" cx="202.3631" cy="-28.3591" r="345.7053" gradientTransform="matrix(0.9814 0.1921 -0.1921 0.9814 45.4897 -45.2658)" gradientUnits="userSpaceOnUse">
				<stop  offset="0" style="stop-color:#6366F1"/>
				<stop  offset="0.5" style="stop-color:#818CF8"/>
				<stop  offset="1" style="stop-color:#38BDF8"/>
			</radialGradient>
			<path style="fill:url(#SVGID_00000015356032633648724890000013589915263225997242_);" d="M147.3,358.1
				c-10.2-5.9-18.2-14.2-28.4-19.6c-9.8-5.2-20.4-8.2-31.6-9.7c2.6-2.7,5.5-2.6,8.2-3.1c5.7-1.2,11.6-2.1,17.3-3.4
				c4.1-1,7-0.1,9.6,3.3c8,10.3,16.1,20.4,24.1,30.6C147,356.6,147.1,357.4,147.3,358.1z"/>
			
				<radialGradient id="SVGID_00000115511340224948005970000002870687845763864977_" cx="202.3631" cy="-28.3591" r="345.7053" gradientTransform="matrix(0.9814 0.1921 -0.1921 0.9814 45.4897 -45.2658)" gradientUnits="userSpaceOnUse">
				<stop  offset="0" style="stop-color:#6366F1"/>
				<stop  offset="0.5" style="stop-color:#818CF8"/>
				<stop  offset="1" style="stop-color:#38BDF8"/>
			</radialGradient>
			<path style="fill:url(#SVGID_00000115511340224948005970000002870687845763864977_);" d="M425,164.1
				c6.3,10.3,12.3,25.8,12.5,32.1c-3.9-4.2-7.5-8.4-11.5-12.2c-3.9-3.6-5.2-7.5-3.5-12.5C423.2,169.3,423.3,166.7,425,164.1z"/>
			
				<radialGradient id="SVGID_00000044867542963317565920000002046905741628034445_" cx="202.3631" cy="-28.3591" r="345.7053" gradientTransform="matrix(0.9814 0.1921 -0.1921 0.9814 45.4897 -45.2658)" gradientUnits="userSpaceOnUse">
				<stop  offset="0" style="stop-color:#6366F1"/>
				<stop  offset="0.5" style="stop-color:#818CF8"/>
				<stop  offset="1" style="stop-color:#38BDF8"/>
			</radialGradient>
			<path style="fill:url(#SVGID_00000044867542963317565920000002046905741628034445_);" d="M377.7,116c2.2,0.3,4.4,0.6,6.5,1
				c2.2,0.5,3.2-0.5,3.5-2.5c6,4.3,10.5,10,14.6,16.3C393.6,126.8,385.6,121.4,377.7,116z"/>
		</g>
		<path class="st23" d="M171.6,252.4c12.4-2.3,23.5-4.4,35.6-6.6c15.3,16.4,31,33.3,46.8,50.3c0,5-1.9,9.9-2.4,15
			c-0.5,5.3-3.8,9.4-4.8,14.8c-20.3,7.2-41.3,11.5-62.1,18.1c-9.6-12.1-19.1-24.1-28.3-35.7C156.9,299,169,255.3,171.6,252.4z"/>
		<path class="st23" d="M347.6,194.5c-0.9,14.2-6.7,26.6-9.2,39.8c-0.8,4.3-2.9,8.7-3.9,13.4c-10.6,4.6-22.4,3.6-32.9,7.9
			c-5.2-2.7-45.4-45.4-49.7-52.7c1.2-10.8,4.2-21.3,8.3-32.2c19-3.7,38.3-7.5,58-11.3C329.3,170.2,338.3,182.8,347.6,194.5z"/>
		<path class="st23" d="M304.2,92.7c2.1,2.7,1.5,4.9-0.1,7.2c-17.4,3.5-35,6.4-52.2,10.9c-9.5,2.5-17.4,1.8-25.3-3.5
			c-3.7-2.5-8.8-2.9-11.4-7c-1.1-4.3,3-6.7,3.1-10.4C247.6,81.4,276.1,85.5,304.2,92.7z"/>
		<path class="st23" d="M418,296.9c-4.8,4.4-10.8,4.3-16.7,5.3c-4-7.9-6.8-16.2-9.6-24.4c-0.7-2.1-0.7-4.2-0.3-6.5
			c2.6-13.6,6.2-27,10.8-40.1c1.5-4.3,1.4-9.1,3.6-14.2c5.5,5.9,10.7,11.1,15.3,16.8c1.5,1.8,2.4,4.4,2,7.5c-0.6,4,0.2,8.2,0.4,12.2
			C424.2,268.1,421.2,282.2,418,296.9z"/>
		<path class="st23" d="M92.3,288.7c-4.8-25.6-5.5-50.6,1.3-75.9c3.1-3.1,7.7-4.2,12.2-5.7c2.4,7.2,4.7,14.3,8.9,20.8
			c-4,7.2-3.7,15.6-6.6,23c-2.5,6.6-3,13.7-6.4,20c-1.7,3.1-1.8,7.1-2.3,10.7C99,285.2,97.4,287.5,92.3,288.7z"/>
	</g>
</g>
<g>
	
		<radialGradient id="SVGID_00000015340377792467651290000004061063446462511280_" cx="2346.9714" cy="1366.3579" r="16.0117" gradientTransform="matrix(-2.4877 1.0636 0.4989 1.1668 5460.8076 -3741.0327)" gradientUnits="userSpaceOnUse">
		<stop  offset="0" style="stop-color:#FFFFFF"/>
		<stop  offset="0.9994" style="stop-color:#000000;stop-opacity:0"/>
	</radialGradient>
	<path style="fill:url(#SVGID_00000015340377792467651290000004061063446462511280_);" d="M264.1,366.5c4.4,10.3,25.8,11.1,47.8,1.7
		c22-9.4,36.3-25.4,31.8-35.7c-4.4-10.3-25.8-11.1-47.8-1.7C273.9,340.2,259.6,356.2,264.1,366.5z"/>
	
		<radialGradient id="SVGID_00000139295773861656127300000001173884166222204815_" cx="2468.7246" cy="1335.3347" r="7.0098" gradientTransform="matrix(-2.6948 0.2405 0.2405 2.6948 6711.1875 -3846.2024)" gradientUnits="userSpaceOnUse">
		<stop  offset="0" style="stop-color:#FFFFFF"/>
		<stop  offset="0.9994" style="stop-color:#000000;stop-opacity:0"/>
	</radialGradient>
	<circle style="fill:url(#SVGID_00000139295773861656127300000001173884166222204815_);" cx="379.6" cy="345.9" r="19"/>
	
		<radialGradient id="SVGID_00000016058025165923354690000004026694724188462521_" cx="2482.5356" cy="1323.4994" r="7.0098" gradientTransform="matrix(-2.6948 0.2405 0.2405 2.6948 6711.1875 -3846.2024)" gradientUnits="userSpaceOnUse">
		<stop  offset="0" style="stop-color:#FFFFFF"/>
		<stop  offset="0.9994" style="stop-color:#000000;stop-opacity:0"/>
	</radialGradient>
	<circle style="fill:url(#SVGID_00000016058025165923354690000004026694724188462521_);" cx="339.6" cy="317.4" r="19"/>
	
		<radialGradient id="SVGID_00000021107466817242673680000012686732846814022562_" cx="2457.2942" cy="1313.6699" r="4.4207" gradientTransform="matrix(-2.6948 0.2405 0.2405 2.6948 6711.1875 -3846.2024)" gradientUnits="userSpaceOnUse">
		<stop  offset="0" style="stop-color:#FFFFFF"/>
		<stop  offset="0.9994" style="stop-color:#000000;stop-opacity:0"/>
	</radialGradient>
	<circle style="fill:url(#SVGID_00000021107466817242673680000012686732846814022562_);" cx="405.2" cy="284.8" r="12"/>
	
		<radialGradient id="SVGID_00000149347572074979155590000016366492775844031166_" cx="2417.804" cy="1273.954" r="4.4207" gradientTransform="matrix(-2.6948 0.2405 0.2405 2.6948 6711.1875 -3846.2024)" gradientUnits="userSpaceOnUse">
		<stop  offset="0" style="stop-color:#FFFFFF"/>
		<stop  offset="0.9994" style="stop-color:#000000;stop-opacity:0"/>
	</radialGradient>
	<circle style="fill:url(#SVGID_00000149347572074979155590000016366492775844031166_);" cx="502.1" cy="168.3" r="12"/>
	
		<radialGradient id="SVGID_00000039095697848403737360000003400053921942552226_" cx="2444.3127" cy="1221.1422" r="4.4207" gradientTransform="matrix(-2.6948 0.2405 0.2405 2.6948 6711.1875 -3846.2024)" gradientUnits="userSpaceOnUse">
		<stop  offset="0" style="stop-color:#FFFFFF"/>
		<stop  offset="0.9994" style="stop-color:#000000;stop-opacity:0"/>
	</radialGradient>
	<circle style="fill:url(#SVGID_00000039095697848403737360000003400053921942552226_);" cx="417.9" cy="32.3" r="12"/>
</g>
</svg>
