<?xml version="1.0" encoding="utf-8"?>
<!-- Generator: Adobe Illustrator 28.0.0, SVG Export Plug-In . SVG Version: 6.00 Build 0)  -->
<svg version="1.1" id="Capa_1" xmlns="http://www.w3.org/2000/svg" xmlns:xlink="http://www.w3.org/1999/xlink" x="0px" y="0px"
	 viewBox="0 0 512 512" style="enable-background:new 0 0 512 512;" xml:space="preserve">
<style type="text/css">
	.st0{fill:url(#SVGID_1_);}
	.st1{fill:url(#SVGID_00000011026030645561414020000006041964359785729668_);}
	
		.st2{fill:url(#SVGID_00000114760253157953290730000011231396475031373473_);stroke:url(#SVGID_00000052086035155446523140000000494890798355935141_);stroke-width:8;}
	.st3{fill:url(#SVGID_00000132079683073336347040000005334982421279838336_);}
	.st4{fill:url(#SVGID_00000002359571798928638440000013200154474991012529_);}
	.st5{fill:#FFDD00;}
	.st6{fill:#E20613;}
	.st7{fill:#002F87;}
	.st8{fill:#FFFFFF;}
	.st9{fill-rule:evenodd;clip-rule:evenodd;fill:#FFFFFF;}
	.st10{fill:url(#SVGID_00000172418911434807800380000006734280832651721393_);}
	.st11{fill:url(#SVGID_00000039837452342417493540000013080712150800967598_);}
	.st12{fill:url(#SVGID_00000098919741422504466280000007191916868085860254_);}
	.st13{fill:url(#SVGID_00000112598650596650080070000007380036694617528753_);}
	.st14{fill:url(#SVGID_00000166659715353306038220000003374240710553567662_);}
	.st15{fill:url(#SVGID_00000088120368383338261500000009605201647993668772_);}
	.st16{fill:url(#SVGID_00000047761586971864712660000007452529901007382956_);}
	.st17{fill:url(#SVGID_00000080895714512168106860000011907835097655677078_);}
	.st18{fill:url(#SVGID_00000044867546893303305120000013243887689111210916_);}
	.st19{fill:url(#SVGID_00000179633102825236255870000001266686361217215139_);}
	.st20{fill:url(#SVGID_00000084518022270735556200000007233765716351004546_);}
	.st21{opacity:0.2;fill:#38BDF8;}
	
		.st22{clip-path:url(#SVGID_00000013185741940145966910000014765682638898271893_);fill:url(#SVGID_00000178194836583913362680000003045587259460651937_);stroke:url(#SVGID_00000177476137923596420700000015489622743738603408_);stroke-width:8;}
	.st23{fill:url(#SVGID_00000174583025475612887640000010286506066647436938_);}
	.st24{fill:url(#SVGID_00000021112929646138072120000010842586860607439273_);}
	.st25{fill:url(#SVGID_00000033340185607965574980000009841460428687445145_);}
	.st26{fill:url(#SVGID_00000092449042764676835100000013174664210803666058_);}
	.st27{fill:url(#SVGID_00000036217439049404883980000017181111196634871480_);}
	.st28{fill:url(#SVGID_00000068651368841166172700000007362319582137935277_);}
	.st29{fill:url(#SVGID_00000139262883513727028520000015268244143198253217_);}
	.st30{fill:url(#SVGID_00000011753857741409399510000005134091841162310844_);}
	.st31{fill:url(#SVGID_00000156578225725315059490000010342032415318122881_);}
	.st32{fill:url(#SVGID_00000018915906470197731520000015622590170203589536_);}
	.st33{opacity:0.1;}
	.st34{fill:none;stroke:url(#SVGID_00000138559035587508521950000002878963682848075678_);stroke-width:8;}
	.st35{fill:url(#SVGID_00000075127029982389400660000007858446015066342037_);}
	.st36{fill:url(#SVGID_00000161620511676186597700000003812413803226974375_);}
	.st37{fill:url(#SVGID_00000039855109671122311090000012641766123319446658_);}
	.st38{fill:url(#SVGID_00000036223354794480578990000007694739861862038462_);}
	.st39{fill:url(#SVGID_00000062183143196561898980000008091206578549878677_);}
	.st40{fill:url(#SVGID_00000110432885975396149000000018018735848369313205_);}
	.st41{fill:url(#SVGID_00000155117695031914765810000010582353518259372685_);}
</style>
<linearGradient id="SVGID_1_" gradientUnits="userSpaceOnUse" x1="312.991" y1="368.9601" x2="313.3006" y2="368.9601">
	<stop  offset="0" style="stop-color:#6D72F3"/>
	<stop  offset="0.4263" style="stop-color:#569CF6"/>
	<stop  offset="0.6108" style="stop-color:#4BAFF8"/>
	<stop  offset="0.7884" style="stop-color:#47B2F8"/>
	<stop  offset="0.9632" style="stop-color:#3BBBF8"/>
	<stop  offset="0.9973" style="stop-color:#38BDF8"/>
</linearGradient>
<polygon class="st0" points="313,369 313.3,368.9 313,369 "/>
<linearGradient id="SVGID_00000127010216817541334820000007727116104403852973_" gradientUnits="userSpaceOnUse" x1="312.9498" y1="369.1191" x2="313.0006" y2="369.1191">
	<stop  offset="0" style="stop-color:#6D72F3"/>
	<stop  offset="0.4263" style="stop-color:#569CF6"/>
	<stop  offset="0.6108" style="stop-color:#4BAFF8"/>
	<stop  offset="0.7884" style="stop-color:#47B2F8"/>
	<stop  offset="0.9632" style="stop-color:#3BBBF8"/>
	<stop  offset="0.9973" style="stop-color:#38BDF8"/>
</linearGradient>
<polygon style="fill:url(#SVGID_00000127010216817541334820000007727116104403852973_);" points="313,369 312.9,369.3 313,369 "/>
<g>
	<defs>
		<path id="SVGID_00000114762638998342148460000014649084243014465695_" d="M-469.4,0h288c61.9,0,112,50.1,112,112v288
			c0,61.9-50.1,112-112,112h-288c-61.9,0-112-50.1-112-112V112C-581.4,50.1-531.2,0-469.4,0z"/>
	</defs>
	<clipPath id="SVGID_00000097482977212413469120000008655740463508608923_">
		<use xlink:href="#SVGID_00000114762638998342148460000014649084243014465695_"  style="overflow:visible;"/>
	</clipPath>
	<g transform="matrix(1 0 0 1 0 0)" style="clip-path:url(#SVGID_00000097482977212413469120000008655740463508608923_);">
		
			<image style="overflow:visible;" width="1200" height="800" xlink:href="../../Downloads/c1045e8c34c2be3761f34cb6ea0b9d25.jpg"  transform="matrix(0.7317 0 0 0.7317 -662.3003 -37.2062)">
		</image>
	</g>
</g>
<g>
	<g>
		
			<radialGradient id="SVGID_00000023997449349889787790000017515261464714279809_" cx="176.4267" cy="112.6165" r="428.3522" gradientUnits="userSpaceOnUse">
			<stop  offset="0" style="stop-color:#FFFFFF"/>
			<stop  offset="0.3724" style="stop-color:#FDFDFD"/>
			<stop  offset="0.5087" style="stop-color:#F6F7F7"/>
			<stop  offset="0.6062" style="stop-color:#EAEBED"/>
			<stop  offset="0.6852" style="stop-color:#D9DBDE"/>
			<stop  offset="0.753" style="stop-color:#C3C5CA"/>
			<stop  offset="0.8131" style="stop-color:#A8ABB2"/>
			<stop  offset="0.8676" style="stop-color:#878B95"/>
			<stop  offset="0.9177" style="stop-color:#626774"/>
			<stop  offset="0.9623" style="stop-color:#383F4F"/>
			<stop  offset="1" style="stop-color:#0F172B"/>
		</radialGradient>
		<path style="fill:url(#SVGID_00000023997449349889787790000017515261464714279809_);" d="M487.7,255.7v0.3c0,2.2,0,4.4-0.1,6.6
			c0,2-0.1,4-0.3,6c-0.4,8.1-1.3,16-2.6,23.8c-5.5,33.7-18.5,65-37.3,92.1c-16.1,23.2-36.5,43.4-60,59.3
			c-37.3,25.4-82.7,40.3-131.5,40.3c-40.3,0-78.2-10.1-111.2-27.9c-9.3-5-18.2-10.6-26.7-16.8h0C61.2,397.8,24.3,331.2,24.3,256
			c0-85.7,48.1-160.4,119.1-199.4c9.4-5.2,19.2-9.7,29.4-13.6c0,0,0,0,0,0c25.8-9.8,53.8-15.1,83.2-15.1c9.4,0,18.6,0.5,27.6,1.6
			c0,0,0,0,0,0c22.9,2.7,44.9,8.7,65.2,17.5c0,0,0.1,0,0.1,0C430.6,82.3,487.6,162.4,487.7,255.7z"/>
		<g id="_x3C_Repetición_radial_x3E__00000134955423255271140460000005604679244289974914_">
			<g>
				
					<radialGradient id="SVGID_00000041994341147447293000000008949001014977116560_" cx="33.1082" cy="405.2831" r="310.4638" gradientUnits="userSpaceOnUse">
					<stop  offset="0" style="stop-color:#81E084"/>
					<stop  offset="1" style="stop-color:#1E4822"/>
				</radialGradient>
				<path style="fill:url(#SVGID_00000041994341147447293000000008949001014977116560_);" d="M108.8,151.2
					c-22.3,29.9-55.8,53.8-65.4,95.5s-2.8,118.4,62.5,125.9s106.2-95.1,149.4-91.7c29.2,2.8,44.3,23.8,83.2,37.4s61.3,30.6,29,77.9
					s-86,11.4-109.5,5.3c-80.3-21-128.3,6.5-167.4-17.8c-39.1-24.3-71.1-87.9-38.3-172S150.8,94.9,108.8,151.2z"/>
				
					<radialGradient id="SVGID_00000166648089259717578640000006853004100431960508_" cx="229.1756" cy="388.9442" r="121.9334" gradientUnits="userSpaceOnUse">
					<stop  offset="0" style="stop-color:#75B5DB"/>
					<stop  offset="1" style="stop-color:#071B62"/>
				</radialGradient>
				<path style="fill:url(#SVGID_00000166648089259717578640000006853004100431960508_);" d="M246.8,402.4c0,0-31.5-6.9-55.4-6.7
					s-53.2,1.1-53.2,1.1c-7.5,8.3-39.5,28.4,2.3,55.5c0,0-20.4-21.6,14.9-37.4C190.9,399,200.8,397,246.8,402.4z"/>
			</g>
		</g>
		<g id="_x3C_Repetición_radial_x3E__00000024680468866228247680000009279878023850172575_">
			<g>
				
					<radialGradient id="SVGID_00000133527913526674043050000001250726026302010245_" cx="267.0132" cy="10.5683" r="316.1818" gradientUnits="userSpaceOnUse">
					<stop  offset="0" style="stop-color:#DD402D"/>
					<stop  offset="1" style="stop-color:#6A1E10"/>
				</radialGradient>
				<path style="fill:url(#SVGID_00000133527913526674043050000001250726026302010245_);" d="M425.7,179
					c-14.8-34.3-18.7-75.3-50-104.4S274.5,13,235.4,65.8s29.3,139.5,4.7,175.3c-17,23.9-42.8,26.5-74,53.3
					c-31.2,26.8-57.1,37.8-82-13.8s33.1-80.2,50.2-97.5c58.4-59,58.5-114.3,99.1-136.1s111.7-17.6,168.1,52.9S453.5,243.5,425.7,179
					z"/>
				
					<radialGradient id="SVGID_00000038415050985046291370000015868921134123977877_" cx="172.9926" cy="176.06" r="131.6187" gradientUnits="userSpaceOnUse">
					<stop  offset="0" style="stop-color:#81E084"/>
					<stop  offset="1" style="stop-color:#1E4822"/>
				</radialGradient>
				<path style="fill:url(#SVGID_00000038415050985046291370000015868921134123977877_);" d="M139.2,173c0,0,21.7-23.9,33.5-44.6
					c11.8-20.7,25.7-46.7,25.7-46.7c-3.5-10.7-4.8-48.4-49.2-25.7c0,0,28.9-6.9,24.9,31.6S166.9,135.8,139.2,173z"/>
			</g>
		</g>
		<g id="_x3C_Repetición_radial_x3E__00000173124622905932267940000002050731236214225830_">
			<g>
				
					<radialGradient id="SVGID_00000137854161835848416130000005045916680447560344_" cx="429.5428" cy="382.0646" r="303.2389" gradientUnits="userSpaceOnUse">
					<stop  offset="0" style="stop-color:#75B5DB"/>
					<stop  offset="1" style="stop-color:#071B62"/>
				</radialGradient>
				<path style="fill:url(#SVGID_00000137854161835848416130000005045916680447560344_);" d="M243.2,439.5
					c37.1,4.4,74.5,21.4,115.4,8.9c40.9-12.5,104-56.8,77.8-117.1S300.9,287,282.3,247.8c-12.2-26.7-1.6-50.3-9.2-90.7
					S268.9,88.8,326,93s52.9,68.8,59.3,92.2c21.9,80.1,69.7,107.8,68.3,153.9S413,444.6,323.8,458.2
					C234.6,471.8,173.5,431.3,243.2,439.5z"/>
				
					<radialGradient id="SVGID_00000182497317171232392020000007781796876720213432_" cx="369.7283" cy="184.8954" r="187.262" gradientUnits="userSpaceOnUse">
					<stop  offset="0" style="stop-color:#DD402D"/>
					<stop  offset="1" style="stop-color:#6A1E10"/>
				</radialGradient>
				<path style="fill:url(#SVGID_00000182497317171232392020000007781796876720213432_);" d="M487.6,262.6c0,2-0.1,4-0.3,6
					c-5.2,41-35.8,24.9-46.2,22.7c0,0-15.6-25-27.6-45.6c-11.8-20.2-21.5-50.2-21.8-51.3c18.3,42.5,25,50.2,56.4,72.9
					C475.8,287.5,485.7,267.5,487.6,262.6z"/>
			</g>
		</g>
	</g>
	<g>
		<path class="st33" d="M372.4,399.5c-6,8.8-13.1,15.5-21.3,20c-8.1,4.5-17.3,6.7-27.4,6.7c-18.6,0-36.9-7.3-51.5-13.3
			c-6.2-2.5-11.5-4.7-15.6-5.7c-1.7-0.4-3.3-0.8-5-1.2c-1.1,1.4-2.8,2.4-4.7,2.4c-0.2,0-0.5,0-0.7,0c-16.1-1.9-26.1-2.7-34.5-2.7
			c-18.1,0-29.3,3.6-53.7,14.6c-10.1,4.5-16,9.9-17.1,15.5c-1.3,6.6,4,12.4,4.1,12.5c2,2.2,2.1,5.5,0.2,7.8
			c-0.1,0.1-0.2,0.2-0.2,0.3c-9.3-5-18.2-10.6-26.7-16.8h0c-2.6-4.1-4.1-8.3-4.5-12.6c-1-11.4,6.3-20.5,12.6-26.8
			c-12.6-0.8-26.1-3.4-38.8-11.3c-42.9-26.6-73.9-94-40.6-179.1c20.9-53.5,58.1-92.2,72.9-92.2c3.3,0,6.1,1.7,7.5,4.5
			c2,4,2.3,11.4-13.8,33c-6.7,9-14.5,17.6-22.1,25.9c-17.7,19.4-35.9,39.5-42.4,67.4c-6.2,27-4.7,67.7,13.4,93.3
			c10.4,14.7,25.2,23.3,44.1,25.4c2,0.2,4.1,0.4,6.1,0.4c30.6,0,56.7-27.1,79.7-50.9c20.5-21.2,39.8-41.3,60.8-41.3
			c0.9,0,1.7,0,2.6,0.1c17.5,1.7,30,9.1,44.4,17.8c11,6.6,23.4,14,40.2,19.9c20.8,7.3,40.8,16.5,46.7,34.5
			C391.7,361.1,386.9,378.2,372.4,399.5z"/>
		<path class="st33" d="M450,204.8c-1.5,3.2-4.3,5.1-7.5,5.1c-4.9,0-11.4-3.4-22.1-28.4c-4.5-10.3-8-21.4-11.4-32.1
			c-8-25-16.3-50.9-37.2-70.4c-18.9-17.6-51.2-35.4-81-35.4c-20.9,0-37.9,8.7-50.6,25.7c-20,27-8.9,65.6,0.9,99.6
			c8.5,29.5,16.5,57.3,3.9,75.5c-10.2,14.4-22.9,21.4-37.6,29.6c-11.2,6.2-23.8,13.3-37.3,24.9c-6.9,5.9-14.4,11.9-22.2,16.4
			c-7.8,4.5-16,7.5-24.2,7.5c-17.2,0-31.8-13-44.6-39.6c-22.2-46,15.8-75.7,38.5-93.5c5.3-4.1,9.8-7.7,12.8-10.7
			c1.2-1.2,2.4-2.5,3.6-3.7c-0.8-1.9-0.6-4.1,0.7-5.8c27.4-36.7,30-45.3,33.8-82.4c1-10.1-0.3-17.6-4-21.7c-3-3.3-7.2-4-10.2-4
			c-2.1,0-3.5,0.3-3.6,0.3c-0.4,0.1-0.9,0.1-1.3,0.1c-2.4,0-4.7-1.5-5.5-3.9c-0.2-0.5-0.3-0.9-0.3-1.4c9.4-5.2,19.2-9.7,29.4-13.6
			c0,0,0,0,0,0h0.2c19.1,0,25.5,15.7,28.5,26.8c7.7-11.6,16.7-21.3,29.2-28c15-8.1,32.9-12.3,51.8-12.3c0.3,0,0.7,0,1,0c0,0,0,0,0,0
			c22.9,2.7,44.9,8.7,65.2,17.5c0,0,0.1,0,0.1,0c18.5,10,38.2,25.5,57.2,49.2C442.2,141.2,456.4,191.4,450,204.8z"/>
		<path class="st33" d="M487.7,255.7v0.3c0,2.2,0,4.4-0.1,6.6c0,2-0.1,4-0.3,6c-0.4,8.1-1.3,16-2.6,23.8c-6,7.6-13.9,9.7-21,9.7
			c-4.9,0-9.7-1-13.9-2.2c6.2,12.5,10.1,25.1,9.6,39.3c-0.4,14.7-4.4,30.2-12,45.2c-16.1,23.2-36.5,43.4-60,59.3
			c-17.6,9.4-38.5,16.5-62.8,20.2c-12.6,1.9-25.3,2.9-37.9,2.9c-19.9,0-39.4-2.5-54.9-7c-24.9-7.2-24.9-14.8-24.9-17.3
			c0-1.9,0.7-6.5,7.5-8.6c3-1,7.1-1.4,12.4-1.4c4.7,0,10.4,0.4,16.9,1.1c11.2,1.3,22.5,3.8,33.5,6.2c16.3,3.5,33.2,7.2,50.1,7.2
			c10.5,0,20.2-1.4,29.5-4.3c26.5-8.1,61-29.8,74.1-58.2c7.5-16.4,7.5-33.5,0-50.9c-13.4-30.8-52.3-40.5-86.7-49
			c-29.7-7.4-57.8-14.4-67.4-34.3c-7.3-16-7.1-30.6-6.8-47.4c0.2-12.8,0.4-27.3-2.9-44.8c-3.8-20.1-6.1-42.6,5.7-56.8
			c8.2-9.9,22-14.7,42.1-14.7c3.5,0,7.4,0.1,11.3,0.4c50.9,3.8,57.7,51.6,61.7,80.1c0.9,6.6,1.7,12.3,2.9,16.4
			c0.5,1.7,0.9,3.3,1.4,4.9c2,0.2,3.9,1.5,4.7,3.5c18.1,42,24.2,48.6,54.4,70.5c7,5.1,13.1,7.7,18.1,7.7c9.5,0,12.6-10.3,12.7-10.4
			C483,257.5,485.2,255.8,487.7,255.7z"/>
	</g>
</g>
</svg>
