<?xml version="1.0" encoding="utf-8"?>
<!-- Generator: Adobe Illustrator 28.0.0, SVG Export Plug-In . SVG Version: 6.00 Build 0)  -->
<svg version="1.1" id="Capa_1" xmlns="http://www.w3.org/2000/svg" xmlns:xlink="http://www.w3.org/1999/xlink" x="0px" y="0px"
	 viewBox="0 0 512 512" style="enable-background:new 0 0 512 512;" xml:space="preserve">
<style type="text/css">
	.st0{fill:url(#SVGID_1_);}
	.st1{fill:url(#SVGID_00000079444978860502064120000001285428781484253850_);}
	
		.st2{fill:url(#SVGID_00000182514497554176668770000014261216397150843293_);stroke:url(#SVGID_00000177452271922190674650000006497679678191423923_);stroke-width:8;}
	.st3{fill:url(#SVGID_00000176730621733261477170000012328793152174955187_);}
	.st4{fill:url(#SVGID_00000063628854463533602090000005030301281672451236_);}
	.st5{fill:#FFDD00;}
	.st6{fill:#E20613;}
	.st7{fill:#002F87;}
	.st8{fill:#FFFFFF;}
	.st9{fill-rule:evenodd;clip-rule:evenodd;fill:#FFFFFF;}
	.st10{fill:url(#SVGID_00000007401776675092155580000008934285023488281744_);}
	.st11{fill:url(#SVGID_00000170239681047029119750000001878117687195542676_);}
	.st12{fill:url(#SVGID_00000133517416614230290340000016556490642408787633_);}
	.st13{fill:url(#SVGID_00000035520040119990763270000010594569022902967480_);}
	.st14{fill:url(#SVGID_00000057145755397133821700000006324998246970824590_);}
	.st15{fill:url(#SVGID_00000132788261046194806770000013508422189111572622_);}
	.st16{fill:url(#SVGID_00000080924725701802768860000014510917598752129686_);}
	.st17{fill:url(#SVGID_00000104677428575373326040000012851688761013705106_);}
	.st18{fill:url(#SVGID_00000132060971162114140340000015071237214863579583_);}
	.st19{fill:url(#SVGID_00000030464794228699280070000008085728534136170143_);}
	.st20{fill:url(#SVGID_00000176732430024419703350000005673065160857987246_);}
	.st21{opacity:0.2;fill:#38BDF8;}
	
		.st22{clip-path:url(#SVGID_00000179617604631228194830000008251156452065764002_);fill:url(#SVGID_00000136411319094017029360000016245884132132976804_);stroke:url(#SVGID_00000101807647531602772460000015662616277786368402_);stroke-width:8;}
	.st23{fill:url(#SVGID_00000063591293994151469150000007634744364456393889_);}
	.st24{fill:url(#SVGID_00000173882618525740471220000000824192279606554511_);}
	.st25{fill:url(#SVGID_00000059310432049234054830000003886410873192247199_);}
	.st26{fill:url(#SVGID_00000159454191039977402500000012621164061401224332_);}
	.st27{fill:url(#SVGID_00000054967592850576682240000004098283402261169289_);}
	.st28{fill:url(#SVGID_00000166648657750219721510000003960874571290113168_);}
	.st29{fill:url(#SVGID_00000151537330619537416280000004307928533581988746_);}
	.st30{fill:url(#SVGID_00000050653547493550429170000016224880291577510034_);}
	.st31{fill:url(#SVGID_00000060020020758165663570000003043986713879628722_);}
	.st32{fill:url(#SVGID_00000073683938488162536030000000113478524889953944_);}
	.st33{opacity:0.1;}
	.st34{fill:none;stroke:url(#SVGID_00000142863147610073918930000004511677509272368031_);stroke-width:8;}
	.st35{fill:url(#SVGID_00000173840877940022002790000011989211637991384507_);}
	.st36{fill:url(#SVGID_00000023997148744999455120000012945609754627143858_);}
	.st37{fill:url(#SVGID_00000032645236144753138080000008681548131905989309_);}
	.st38{fill:url(#SVGID_00000180350562098151019540000001876362993149331368_);}
	.st39{fill:url(#SVGID_00000057113503199736295680000004434337784555635100_);}
	.st40{fill:url(#SVGID_00000012450744040778031530000015255515866700211646_);}
	.st41{fill:url(#SVGID_00000105422042564525616720000006913100532683289738_);}
</style>
<g>
	<defs>
		<path id="SVGID_00000114762638998342148460000014649084243014465695_" d="M112,0h288c61.9,0,112,50.1,112,112v288
			c0,61.9-50.1,112-112,112H112C50.1,512,0,461.9,0,400V112C0,50.1,50.1,0,112,0z"/>
	</defs>
	<clipPath id="SVGID_00000106857411297425469590000002267803490615669905_">
		<use xlink:href="#SVGID_00000114762638998342148460000014649084243014465695_"  style="overflow:visible;"/>
	</clipPath>
	
		<radialGradient id="SVGID_1_" cx="-956.2023" cy="795.9473" r="0.567" gradientTransform="matrix(512 0 0 -512 489831.5625 407781)" gradientUnits="userSpaceOnUse">
		<stop  offset="0.6499" style="stop-color:#1E1B4B"/>
		<stop  offset="1" style="stop-color:#0F172A"/>
	</radialGradient>
	
		<linearGradient id="SVGID_00000169552667572238183540000013901842758283385001_" gradientUnits="userSpaceOnUse" x1="-956.7023" y1="796.4473" x2="-955.7023" y2="795.4473" gradientTransform="matrix(512 0 0 -512 489831.5625 407781)">
		<stop  offset="0" style="stop-color:#38BDF8"/>
		<stop  offset="0.5" style="stop-color:#818CF8"/>
		<stop  offset="1" style="stop-color:#6366F1"/>
	</linearGradient>
	
		<path style="clip-path:url(#SVGID_00000106857411297425469590000002267803490615669905_);fill:url(#SVGID_1_);stroke:url(#SVGID_00000169552667572238183540000013901842758283385001_);stroke-width:8;" d="
		M112,0h288c61.9,0,112,50.1,112,112v288c0,61.9-50.1,112-112,112H112C50.1,512,0,461.9,0,400V112C0,50.1,50.1,0,112,0z"/>
	<g transform="matrix(1 0 0 1 0 0)" style="clip-path:url(#SVGID_00000106857411297425469590000002267803490615669905_);">
		
			<image style="overflow:visible;" width="1200" height="800" xlink:href="../../Downloads/c1045e8c34c2be3761f34cb6ea0b9d25.jpg"  transform="matrix(0.7317 0 0 0.7317 -80.9386 -37.2062)">
		</image>
	</g>
</g>
<linearGradient id="SVGID_00000159442926361037400780000015885878391671014047_" gradientUnits="userSpaceOnUse" x1="312.991" y1="368.9601" x2="313.3006" y2="368.9601">
	<stop  offset="0" style="stop-color:#6D72F3"/>
	<stop  offset="0.4263" style="stop-color:#569CF6"/>
	<stop  offset="0.6108" style="stop-color:#4BAFF8"/>
	<stop  offset="0.7884" style="stop-color:#47B2F8"/>
	<stop  offset="0.9632" style="stop-color:#3BBBF8"/>
	<stop  offset="0.9973" style="stop-color:#38BDF8"/>
</linearGradient>
<polygon style="fill:url(#SVGID_00000159442926361037400780000015885878391671014047_);" points="313,369 313.3,368.9 313,369 "/>
<radialGradient id="SVGID_00000078033245015967877400000010601674161823278249_" cx="251.5532" cy="230.1064" r="213.8363" gradientUnits="userSpaceOnUse">
	<stop  offset="0" style="stop-color:#000000"/>
	<stop  offset="0.8562" style="stop-color:#000000;stop-opacity:0.1438"/>
	<stop  offset="1" style="stop-color:#000000;stop-opacity:0"/>
</radialGradient>
<path style="fill:url(#SVGID_00000078033245015967877400000010601674161823278249_);" d="M480.6,228.8v0.3c0,2.2,0,4.4-0.1,6.6
	c0,2-0.1,4-0.3,6c-0.4,8-1.3,15.9-2.6,23.7c-5.5,33.6-18.5,64.8-37.2,91.8c-16.1,23.2-36.3,43.2-59.8,59.1
	c-37.2,25.3-82.4,40.2-131.1,40.2c-40.2,0-77.9-10.1-110.8-27.8c-9.3-5-18.1-10.6-26.6-16.8h0C55.4,370.4,18.6,304,18.6,229.1
	c0-85.5,47.9-160,118.7-198.8c9.4-5.2,19.2-9.7,29.3-13.5c0,0,0,0,0,0C192.4,7,220.3,1.6,249.6,1.6c9.3,0,18.5,0.5,27.5,1.6
	c0,0,0,0,0,0c22.9,2.7,44.7,8.6,65,17.4c0,0,0.1,0,0.1,0C423.6,55.8,480.5,135.7,480.6,228.8z"/>
<linearGradient id="SVGID_00000133517980169311234720000016073973251657734564_" gradientUnits="userSpaceOnUse" x1="312.9498" y1="369.1191" x2="313.0006" y2="369.1191">
	<stop  offset="0" style="stop-color:#6D72F3"/>
	<stop  offset="0.4263" style="stop-color:#569CF6"/>
	<stop  offset="0.6108" style="stop-color:#4BAFF8"/>
	<stop  offset="0.7884" style="stop-color:#47B2F8"/>
	<stop  offset="0.9632" style="stop-color:#3BBBF8"/>
	<stop  offset="0.9973" style="stop-color:#38BDF8"/>
</linearGradient>
<polygon style="fill:url(#SVGID_00000133517980169311234720000016073973251657734564_);" points="313,369 312.9,369.3 313,369 "/>
<g>
	<g transform="translate(0, 38)">
		<g>
			<g>
				
					<radialGradient id="SVGID_00000181804068444374183800000000064595942334666382_" cx="200.2053" cy="117.4854" r="300.3494" gradientUnits="userSpaceOnUse">
					<stop  offset="0" style="stop-color:#FFFFFF"/>
					<stop  offset="0.3724" style="stop-color:#FDFDFD"/>
					<stop  offset="0.5087" style="stop-color:#F6F7F7"/>
					<stop  offset="0.6062" style="stop-color:#EAEBED"/>
					<stop  offset="0.6852" style="stop-color:#D9DBDE"/>
					<stop  offset="0.753" style="stop-color:#C3C5CA"/>
					<stop  offset="0.8131" style="stop-color:#A8ABB2"/>
					<stop  offset="0.8676" style="stop-color:#878B95"/>
					<stop  offset="0.9177" style="stop-color:#626774"/>
					<stop  offset="0.9623" style="stop-color:#383F4F"/>
					<stop  offset="1" style="stop-color:#0F172B"/>
				</radialGradient>
				<path style="fill:url(#SVGID_00000181804068444374183800000000064595942334666382_);" d="M418.5,217.8v0.2c0,1.6,0,3.1-0.1,4.6
					c0,1.4-0.1,2.8-0.2,4.2c-0.3,5.6-0.9,11.2-1.8,16.7c-3.9,23.7-13,45.6-26.2,64.6c-11.3,16.3-25.6,30.4-42,41.6
					C322,367.5,290.2,378,256,378c-28.2,0-54.8-7.1-77.9-19.6c-6.5-3.5-12.8-7.5-18.7-11.8h0c-39.9-29.1-65.8-75.9-65.8-128.6
					c0-60.1,33.7-112.5,83.5-139.8c6.6-3.6,13.5-6.8,20.6-9.5c0,0,0,0,0,0c18.1-6.9,37.8-10.6,58.3-10.6c6.6,0,13,0.4,19.4,1.1
					c0,0,0,0,0,0c16.1,1.9,31.5,6.1,45.7,12.2c0,0,0,0,0.1,0C378.4,96.2,418.4,152.4,418.5,217.8z"/>
				<g id="_x3C_Repetición_radial_x3E__00000028284643465429164220000009783143566110784447_">
					<g>
						
							<radialGradient id="SVGID_00000089557353939632258030000012463911610114238604_" cx="99.714" cy="322.6956" r="217.6891" gradientUnits="userSpaceOnUse">
							<stop  offset="0" style="stop-color:#81E084"/>
							<stop  offset="1" style="stop-color:#1E4822"/>
						</radialGradient>
						<path style="fill:url(#SVGID_00000089557353939632258030000012463911610114238604_);" d="M152.8,144.6
							c-15.7,21-39.1,37.8-45.9,67s-1.9,83,43.8,88.3s74.4-66.7,104.8-64.3c20.5,2,31.1,16.7,58.3,26.2c27.2,9.6,43,21.5,20.4,54.6
							s-60.3,8-76.8,3.7c-56.3-14.7-89.9,4.5-117.4-12.5S90.2,245.9,113.2,187S182.2,105.1,152.8,144.6z"/>
						
							<radialGradient id="SVGID_00000163070622352262300530000016549076938892642731_" cx="237.1915" cy="311.2391" r="85.4965" gradientUnits="userSpaceOnUse">
							<stop  offset="0" style="stop-color:#75B5DB"/>
							<stop  offset="1" style="stop-color:#071B62"/>
						</radialGradient>
						<path style="fill:url(#SVGID_00000163070622352262300530000016549076938892642731_);" d="M249.6,320.7c0,0-22.1-4.8-38.8-4.7
							s-37.3,0.8-37.3,0.8c-5.3,5.8-27.7,19.9,1.6,38.9c0,0-14.3-15.2,10.5-26.2C210.3,318.3,217.3,316.9,249.6,320.7z"/>
					</g>
				</g>
				<g id="_x3C_Repetición_radial_x3E__00000042701605962035927170000001035516186848250258_">
					<g>
						
							<radialGradient id="SVGID_00000129176986241219638180000010237704912293959861_" cx="263.7222" cy="45.9318" r="221.6984" gradientUnits="userSpaceOnUse">
							<stop  offset="0" style="stop-color:#DD402D"/>
							<stop  offset="1" style="stop-color:#6A1E10"/>
						</radialGradient>
						<path style="fill:url(#SVGID_00000129176986241219638180000010237704912293959861_);" d="M375,164
							c-10.4-24.1-13.1-52.8-35.1-73.2s-70.9-43.2-98.4-6.2s20.6,97.8,3.3,122.9c-11.9,16.7-30,18.6-51.9,37.4s-40.1,26.5-57.5-9.7
							s23.2-56.2,35.2-68.3c40.9-41.4,41-80.2,69.5-95.4s78.3-12.3,117.8,37.1S394.5,209.3,375,164z"/>
						
							<radialGradient id="SVGID_00000103945731817285933870000012416408631085224068_" cx="197.7973" cy="161.9703" r="92.2876" gradientUnits="userSpaceOnUse">
							<stop  offset="0" style="stop-color:#81E084"/>
							<stop  offset="1" style="stop-color:#1E4822"/>
						</radialGradient>
						<path style="fill:url(#SVGID_00000103945731817285933870000012416408631085224068_);" d="M174.1,159.8
							c0,0,15.2-16.8,23.5-31.3c8.3-14.5,18-32.7,18-32.7c-2.4-7.5-3.4-33.9-34.5-18c0,0,20.3-4.8,17.5,22.2
							S193.5,133.8,174.1,159.8z"/>
					</g>
				</g>
				<g id="_x3C_Repetición_radial_x3E__00000011730194200905025550000013563554696600998586_">
					<g>
						
							<radialGradient id="SVGID_00000047781572778143135670000008278082553236744343_" cx="377.6837" cy="306.4153" r="212.6232" gradientUnits="userSpaceOnUse">
							<stop  offset="0" style="stop-color:#75B5DB"/>
							<stop  offset="1" style="stop-color:#071B62"/>
						</radialGradient>
						<path style="fill:url(#SVGID_00000047781572778143135670000008278082553236744343_);" d="M247,346.7c26,3.1,52.3,15,80.9,6.2
							c28.7-8.8,72.9-39.8,54.5-82.1c-18.3-42.3-95-31.1-108.1-58.6c-8.5-18.7-1.1-35.3-6.5-63.6s-2.9-47.9,37.1-44.9
							c40,3,37.1,48.2,41.6,64.6c15.4,56.1,48.9,75.6,47.9,107.9s-28.5,74-91,83.5C241,369.4,198.1,341,247,346.7z"/>
						
							<radialGradient id="SVGID_00000042734635052590014550000009112508748898067885_" cx="335.7433" cy="168.1654" r="131.3033" gradientUnits="userSpaceOnUse">
							<stop  offset="0" style="stop-color:#DD402D"/>
							<stop  offset="1" style="stop-color:#6A1E10"/>
						</radialGradient>
						<path style="fill:url(#SVGID_00000042734635052590014550000009112508748898067885_);" d="M418.4,222.7c0,1.4-0.1,2.8-0.2,4.2
							c-3.7,28.7-25.1,17.5-32.4,15.9c0,0-10.9-17.5-19.3-32c-8.3-14.2-15.1-35.2-15.3-35.9c12.8,29.8,17.5,35.2,39.5,51.1
							C410.1,240.1,417.1,226.1,418.4,222.7z"/>
					</g>
				</g>
			</g>
			<g>
				<path class="st33" d="M337.6,318.6c-4.2,6.2-9.2,10.9-14.9,14c-5.7,3.1-12.1,4.7-19.2,4.7c-13.1,0-25.9-5.2-36.1-9.3
					c-4.3-1.8-8.1-3.3-11-4c-1.2-0.3-2.3-0.6-3.5-0.9c-0.8,1-2,1.7-3.3,1.7c-0.2,0-0.3,0-0.5,0c-11.3-1.3-18.3-1.9-24.2-1.9
					c-12.7,0-20.5,2.6-37.7,10.2c-7.1,3.2-11.2,6.9-12,10.9c-0.9,4.6,2.8,8.7,2.8,8.8c1.4,1.5,1.5,3.9,0.2,5.5
					c0,0.1-0.1,0.1-0.2,0.2c-6.5-3.5-12.8-7.5-18.7-11.8h0c-1.8-2.9-2.9-5.8-3.1-8.9c-0.7-8,4.4-14.3,8.9-18.8
					c-8.8-0.6-18.3-2.4-27.2-7.9c-30.1-18.6-51.8-65.9-28.5-125.6c14.6-37.5,40.7-64.7,51.1-64.7c2.3,0,4.3,1.2,5.3,3.1
					c1.4,2.8,1.6,8-9.7,23.1c-4.7,6.3-10.2,12.3-15.5,18.1c-12.4,13.6-25.2,27.7-29.7,47.3c-4.4,18.9-3.3,47.5,9.4,65.4
					c7.3,10.3,17.7,16.3,30.9,17.8c1.4,0.2,2.9,0.2,4.3,0.2c21.4,0,39.7-19,55.9-35.7c14.4-14.9,27.9-28.9,42.7-28.9
					c0.6,0,1.2,0,1.8,0.1c12.3,1.2,21,6.4,31.2,12.5c7.7,4.6,16.4,9.8,28.2,14c14.6,5.1,28.6,11.6,32.8,24.2
					C351.2,291.7,347.8,303.7,337.6,318.6z"/>
				<path class="st33" d="M392,182.1c-1.1,2.2-3,3.5-5.3,3.5c-3.4,0-8-2.4-15.5-19.9c-3.1-7.3-5.6-15-8-22.5
					c-5.6-17.5-11.4-35.7-26.1-49.4C323.9,81.5,301.2,69,280.3,69c-14.7,0-26.6,6.1-35.5,18c-14,18.9-6.2,46,0.6,69.9
					c5.9,20.7,11.5,40.2,2.8,52.9c-7.2,10.1-16.1,15-26.4,20.7c-7.8,4.4-16.7,9.3-26.2,17.4c-4.8,4.2-10.1,8.3-15.6,11.5
					c-5.5,3.2-11.2,5.3-17,5.3c-12.1,0-22.3-9.1-31.3-27.8c-15.5-32.3,11.1-53.1,27-65.6c3.7-2.9,6.9-5.4,9-7.5
					c0.9-0.9,1.7-1.7,2.5-2.6c-0.6-1.3-0.4-2.9,0.5-4.1c19.2-25.7,21-31.8,23.7-57.8c0.7-7.1-0.2-12.4-2.8-15.2
					c-2.1-2.3-5-2.8-7.2-2.8c-1.5,0-2.5,0.2-2.5,0.2c-0.3,0.1-0.6,0.1-0.9,0.1c-1.7,0-3.3-1.1-3.9-2.7c-0.1-0.3-0.2-0.7-0.2-1
					c6.6-3.6,13.5-6.8,20.6-9.5c0,0,0,0,0,0h0.2c13.4,0,17.9,11,20,18.8c5.4-8.1,11.7-14.9,20.5-19.6c10.5-5.7,23.1-8.6,36.3-8.6
					c0.2,0,0.5,0,0.7,0c0,0,0,0,0,0c16.1,1.9,31.5,6.1,45.7,12.2c0,0,0,0,0.1,0c13,7,26.8,17.9,40.1,34.5
					C386.6,137.5,396.5,172.7,392,182.1z"/>
				<path class="st33" d="M418.5,217.8v0.2c0,1.6,0,3.1-0.1,4.6c0,1.4-0.1,2.8-0.2,4.2c-0.3,5.6-0.9,11.2-1.8,16.7
					c-4.2,5.3-9.8,6.8-14.7,6.8c-3.4,0-6.8-0.7-9.7-1.5c4.3,8.8,7.1,17.6,6.8,27.6c-0.3,10.3-3.1,21.2-8.4,31.7
					c-11.3,16.3-25.6,30.4-42,41.6c-12.3,6.6-27,11.6-44,14.2c-8.8,1.3-17.7,2-26.5,2c-13.9,0-27.6-1.7-38.5-4.9
					c-17.4-5.1-17.4-10.4-17.4-12.2c0-1.3,0.5-4.5,5.2-6.1c2.1-0.7,5-1,8.7-1c3.3,0,7.3,0.3,11.8,0.8c7.9,0.9,15.8,2.7,23.5,4.3
					c11.4,2.5,23.3,5.1,35.1,5.1c7.4,0,14.1-1,20.7-3c18.6-5.7,42.8-20.9,52-40.8c5.3-11.5,5.3-23.5,0-35.7
					c-9.4-21.6-36.7-28.4-60.8-34.4c-20.9-5.2-40.6-10.1-47.2-24.1c-5.1-11.2-5-21.4-4.8-33.2c0.1-9,0.3-19.1-2-31.4
					c-2.7-14.1-4.3-29.9,4-39.8c5.8-6.9,15.4-10.3,29.5-10.3c2.5,0,5.2,0.1,7.9,0.3c35.7,2.7,40.4,36.2,43.3,56.2
					c0.7,4.6,1.2,8.6,2,11.5c0.3,1.2,0.7,2.3,1,3.5c1.4,0.2,2.7,1.1,3.3,2.5c12.7,29.5,17,34.1,38.2,49.4c4.9,3.6,9.2,5.4,12.7,5.4
					c6.6,0,8.9-7.2,8.9-7.3C415.2,219.1,416.7,217.9,418.5,217.8z"/>
			</g>
		</g>
	</g>

</g>
<linearGradient id="SVGID_00000117636263110657127360000013765882729031351728_" gradientUnits="userSpaceOnUse" x1="-956.7023" y1="796.4473" x2="-955.7023" y2="795.4473" gradientTransform="matrix(512 0 0 -512 489831.5625 407781)">
	<stop  offset="0" style="stop-color:#38BDF8"/>
	<stop  offset="0.5" style="stop-color:#818CF8"/>
	<stop  offset="1" style="stop-color:#6366F1"/>
</linearGradient>
<path style="fill:none;stroke:url(#SVGID_00000117636263110657127360000013765882729031351728_);stroke-width:8;" d="M112,0h288
	c61.9,0,112,50.1,112,112v288c0,61.9-50.1,112-112,112H112C50.1,512,0,461.9,0,400V112C0,50.1,50.1,0,112,0z"/>
</svg>
